<?xml version="1.0" encoding="utf-8"?>
<!-- Generator: Adobe Illustrator 16.0.0, SVG Export Plug-In . SVG Version: 6.00 Build 0)  -->
<!DOCTYPE svg PUBLIC "-//W3C//DTD SVG 1.1//EN" "http://www.w3.org/Graphics/SVG/1.1/DTD/svg11.dtd">
<svg version="1.1" id="Layer_1" xmlns="http://www.w3.org/2000/svg" xmlns:xlink="http://www.w3.org/1999/xlink" x="0px" y="0px"
	 width="200px" height="200px" viewBox="0 0 200 200" enable-background="new 0 0 200 200" xml:space="preserve">
<g>
	<g>
		<path fill="#037AA6" d="M193.031,116.41c-0.088-0.669-0.336-3.481-1.062-3.891c-3.565-1.626-7.212-3.079-10.899-4.412
			c-0.529-0.914,0.188-3.947,0.24-5.004c0.051-1.053,0.051-2.046,0-3.1c-0.052-1.058-0.771-4.095-0.24-5.01
			c3.688-1.33,7.334-2.787,10.899-4.407c0.847-0.46,1.054-3.897,1.113-4.654c0.421-5.021-1.215-11.23-5.229-14.594
			c-0.627-0.524-1.55-0.214-2.311-0.186c-1.966,0.077-3.922,0.186-5.877,0.329c-0.973,0.073-1.945,0.154-2.916,0.242
			c-1.448,0.132-1.126-0.463-1.625-1.671c-0.826-2.027-1.818-3.999-2.785-5.969c-0.408-0.84-0.842-1.681-1.299-2.5
			c-0.641-1.141-1.301-1.259-0.292-2.311c1.351-1.41,2.677-2.846,3.976-4.304c1.842-2.059,3.588-3.072,3.012-5.848
			c-1.183-5.727-5.633-11.168-11.176-13.173c-2.062-0.744-4.459,1.495-6.218,2.489c-1.709,0.963-3.403,1.959-5.079,2.984
			c-1.646-1.446-3.184-3.024-4.949-4.319c-1.205-0.922-2.438-1.817-3.651-2.725c-0.528-0.389-1.052-0.784-1.578-1.172
			c-0.26-0.196,1.526-5.001,1.694-5.583c0.539-1.839,2.156-4.685,1.099-6.447c-1.237-2.073-3.037-3.792-5.075-5.08
			c-2.764-1.754-6.008-2.994-9.303-3.083c-2.855-0.081-3.24,0.319-4.928,2.638c-0.809,1.105-4.323,7.363-5.391,7.083
			c-1.842-0.482-3.684-0.964-5.521-1.447c-1.054-0.277-2.104-0.538-3.185-0.717c-0.924-0.155-1.857-0.275-2.789-0.419
			c-1.396-0.213-1.008-0.828-1.188-2.089c-0.271-1.944-0.575-3.887-0.913-5.824c-0.159-0.909-0.171-3.508-0.935-4.062
			c-4.235-3.097-10.468-3.421-15.319-1.958c-1.472,0.438-3.101,1.046-4.306,2.045c-0.598,0.495-0.669,3.185-0.81,3.974
			c-0.394,2.255-0.744,4.521-1.047,6.792c-0.188,1.423-0.692,1.072-1.984,1.259c-0.93,0.137-1.864,0.267-2.787,0.45
			c-0.859,0.167-1.707,0.405-2.557,0.625c-1.816,0.476-3.631,0.956-5.45,1.432c-0.678,0.177-5.052-7.001-5.738-7.937
			c-1.465-1.98-2.547-1.975-5.061-1.78c-5.352,0.415-11.184,3.545-13.824,8.352c-0.901,1.641,1.015,5.397,1.532,7.125
			c0.144,0.487,1.647,4.477,1.42,4.648c-0.659,0.491-1.314,0.98-1.977,1.471c-1.336,0.995-2.698,1.956-4,2.998
			c-1.466,1.172-2.793,2.512-4.204,3.748c-1.958-1.195-3.94-2.352-5.943-3.469c-1.953-1.086-3.557-2.729-5.732-1.841
			c-2.826,1.155-5.273,3.167-7.199,5.518c-1.812,2.321-3.25,5.064-3.716,8.001c-0.411,2.616,2.138,4.253,3.785,6.071
			c1.302,1.446,2.638,2.872,3.997,4.271c-1.021,1.58-1.868,3.267-2.68,4.961c-0.813,1.696-1.661,3.378-2.374,5.119
			c-0.496,1.21-0.177,1.806-1.625,1.671c-1.299-0.116-2.593-0.224-3.889-0.308c-1.791-0.122-6.003-1.192-7.393,0.091
			c-1.639,1.513-2.831,3.531-3.666,5.581c-1.232,3.02-1.749,6.366-1.332,9.607c0.209,1.636,0.362,3.585,1.943,4.289
			c0.979,0.436,10.034,3.625,10.018,4.064c-0.088,1.795-0.177,3.586-0.264,5.382c-0.05,1.058-0.008,2.077,0.044,3.142
			c0.048,0.996,0.096,1.989,0.148,2.989c0.058,1.25,0.406,1.424-0.85,1.883c-1.848,0.681-3.681,1.392-5.5,2.142
			c-0.734,0.3-4.224,1.272-4.487,1.957c-0.661,1.733-1.071,3.479-1.153,5.341c-0.209,4.795,1.44,10.896,5.419,13.993
			c0.623,0.488,2.396,0.065,3.152,0.035c1.959-0.089,3.914-0.208,5.869-0.364c0.969-0.078,1.939-0.166,2.907-0.255
			c0.296,0.892,0.647,1.765,1.024,2.626c0.879,2.008,1.848,3.986,2.836,5.944c0.427,0.834,0.871,1.664,1.353,2.472
			c0.734,1.219,0.046,1.26-0.845,2.203c-1.348,1.414-2.667,2.864-3.958,4.328c-1.986,2.25-2.947,2.779-2.244,5.636
			c1.375,5.591,5.817,10.931,11.365,12.765c1.888,0.619,5.137-2.152,6.769-3.086c0.85-0.488,1.703-0.983,2.549-1.483
			c1.094-0.655,1.33-1.338,2.373-0.39c1.403,1.279,2.77,2.591,4.292,3.727c1.33,0.986,2.654,1.979,3.982,2.973
			c0.248,0.18,1.135,0.625,1.248,0.926c-0.715,2.148-1.384,4.311-2.011,6.485c-0.565,1.968-1.809,3.968-0.655,5.789
			c1.38,2.181,3.366,3.945,5.596,5.218c2.794,1.601,5.938,2.711,9.192,2.672c2.89-0.037,3.188-1.024,4.92-3.433
			c0.984-1.36,3.504-6.637,5.119-6.209c1.818,0.474,3.633,0.949,5.45,1.427c1.286,0.338,2.566,0.606,3.881,0.801
			c0.93,0.138,1.865,0.269,2.791,0.422c0.124,0.969,0.254,1.939,0.396,2.91c0.278,1.949,0.602,3.896,0.947,5.828
			c0.175,0.944,0.05,2.609,0.919,3.207c4.495,3.045,10.752,3.348,15.769,1.648c1.235-0.419,2.805-0.969,3.762-1.911
			c0.701-0.688,0.748-3.894,0.915-4.89c0.381-2.258,0.715-4.522,1.006-6.795c4.357-0.756,8.526-1.711,12.797-2.828
			c0.469-0.123,5.539,7.908,6.18,8.758c1.107,1.479,3.436,1.134,5.162,0.926c5.189-0.634,10.75-3.742,13.244-8.477
			c0.379-0.721-0.103-1.487-0.311-2.242c-0.501-1.889-1.039-3.752-1.614-5.62c-0.177-0.581-1.431-3.495-1.015-3.812
			c0.756-0.561,1.511-1.121,2.264-1.688c1.448-1.08,2.942-2.109,4.312-3.287c0.715-0.611,1.4-1.254,2.092-1.888
			c0.957-0.886,1.003-1.495,2.225-0.757c1.967,1.187,3.957,2.338,5.973,3.439c2.184,1.195,3.039,2.184,5.271,1.195
			c2.948-1.314,5.541-3.549,7.406-6.166c1.59-2.234,2.836-4.848,3.166-7.594c0.292-2.453-2.973-4.721-4.5-6.391
			c-0.657-0.715-1.322-1.435-1.995-2.141c-0.894-0.947-1.578-0.98-0.847-2.199c0.969-1.619,1.777-3.312,2.582-5.014
			c0.824-1.691,1.654-3.383,2.313-5.145c0.503-1.334,0.957-0.822,2.253-0.712c1.301,0.111,2.598,0.207,3.898,0.289
			c1.88,0.11,5.146,1.089,6.611-0.347c1.535-1.503,2.668-3.418,3.469-5.395C192.934,123.001,193.447,119.651,193.031,116.41z"/>
	</g>
</g>
<circle fill="none" stroke="#FFFFFF" stroke-width="3.2626" cx="98.902" cy="101.551" r="58.845"/>
<path fill="#FFFFFF" d="M123.689,130.751H74.115c-4.131,0-4.131,0-4.131-4.132v-24.787c0-4.131,0-8.263,8.262-8.263V81.176
	c0-12.394,4.132-16.525,16.525-16.525h8.262c12.394,0,16.525,4.131,16.525,16.525v12.393c8.262,0,8.262,4.132,8.262,8.263v24.787
	C127.82,130.751,127.82,130.751,123.689,130.751z M107.165,81.176c0-4.131,0-4.131-4.132-4.131h-8.262c-4.132,0-4.132,0-4.132,4.131
	v12.393h16.525V81.176z"/>
</svg>
